G04 MADE WITH FRITZING*
G04 WWW.FRITZING.ORG*
G04 DOUBLE SIDED*
G04 HOLES PLATED*
G04 CONTOUR ON CENTER OF CONTOUR VECTOR*
%ASAXBY*%
%FSLAX23Y23*%
%MOIN*%
%OFA0B0*%
%SFA1.0B1.0*%
%ADD10C,0.070866*%
%ADD11C,0.078000*%
%ADD12C,0.039370*%
%ADD13C,0.079370*%
%ADD14C,0.008000*%
%LNCOPPER0*%
G90*
G70*
G54D10*
X3763Y935D03*
X3763Y835D03*
X3663Y835D03*
X3763Y735D03*
X3663Y635D03*
X3763Y635D03*
X3663Y735D03*
X3763Y535D03*
X3663Y535D03*
X3763Y1335D03*
X3663Y1135D03*
X3663Y935D03*
X3763Y1235D03*
X3763Y1135D03*
X3663Y1335D03*
X3763Y1035D03*
X3663Y1035D03*
X3663Y1235D03*
X3663Y1435D03*
X3763Y1635D03*
X3663Y1635D03*
X3663Y1535D03*
X3763Y1535D03*
G54D11*
X2893Y695D03*
X2793Y695D03*
X2693Y695D03*
X2593Y695D03*
X2493Y695D03*
X2393Y695D03*
G54D12*
X1613Y1795D03*
G54D11*
X2093Y695D03*
X1993Y695D03*
X1893Y695D03*
X1793Y695D03*
X1693Y695D03*
X1593Y695D03*
G54D10*
X193Y1495D03*
X193Y495D03*
X1893Y695D03*
X993Y95D03*
X1193Y695D03*
X293Y1395D03*
X1293Y95D03*
X1593Y1495D03*
G54D11*
X1293Y1495D03*
X1193Y1495D03*
X1093Y1495D03*
X993Y1495D03*
X893Y1495D03*
X793Y1495D03*
G54D10*
X193Y395D03*
X1493Y95D03*
G54D12*
X1543Y1005D03*
G54D10*
X2493Y1495D03*
G54D11*
X3763Y1635D03*
X3763Y1535D03*
X3763Y1435D03*
X3763Y1335D03*
X3763Y1235D03*
X3763Y1135D03*
X3763Y1035D03*
X3763Y935D03*
X3763Y835D03*
X3763Y735D03*
X3763Y635D03*
X3763Y535D03*
X3763Y1635D03*
X3763Y1535D03*
X3763Y1435D03*
X3763Y1335D03*
X3763Y1235D03*
X3763Y1135D03*
X3763Y1035D03*
X3763Y935D03*
X3763Y835D03*
X3763Y735D03*
X3763Y635D03*
X3763Y535D03*
X3663Y535D03*
X3663Y635D03*
X3663Y735D03*
X3663Y835D03*
X3663Y935D03*
X3663Y1035D03*
X3663Y1135D03*
X3663Y1235D03*
X3663Y1335D03*
X3663Y1435D03*
X3663Y1535D03*
X3663Y1635D03*
X3763Y1635D03*
X3763Y1535D03*
X3763Y1435D03*
X3763Y1335D03*
X3763Y1235D03*
X3763Y1135D03*
X3763Y1035D03*
X3763Y935D03*
X3763Y835D03*
X3763Y735D03*
X3763Y635D03*
X3763Y535D03*
X3763Y1635D03*
X3763Y1535D03*
X3763Y1435D03*
X3763Y1335D03*
X3763Y1235D03*
X3763Y1135D03*
X3763Y1035D03*
X3763Y935D03*
X3763Y835D03*
X3763Y735D03*
X3763Y635D03*
X3763Y535D03*
X3663Y535D03*
X3663Y635D03*
X3663Y735D03*
X3663Y835D03*
X3663Y935D03*
X3663Y1035D03*
X3663Y1135D03*
X3663Y1235D03*
X3663Y1335D03*
X3663Y1435D03*
X3663Y1535D03*
X3663Y1635D03*
G54D10*
X193Y1295D03*
X1993Y1995D03*
G54D11*
X293Y695D03*
X293Y595D03*
X293Y495D03*
X293Y395D03*
X293Y695D03*
X293Y595D03*
X293Y495D03*
X293Y395D03*
X193Y395D03*
X193Y495D03*
X193Y595D03*
X193Y695D03*
X293Y695D03*
X293Y595D03*
X293Y495D03*
X293Y395D03*
X293Y695D03*
X293Y595D03*
X293Y495D03*
X293Y395D03*
X193Y395D03*
X193Y495D03*
X193Y595D03*
X193Y695D03*
G54D10*
X2493Y695D03*
G54D11*
X2893Y1495D03*
X2793Y1495D03*
X2693Y1495D03*
X2593Y1495D03*
X2493Y1495D03*
X2393Y1495D03*
G54D10*
X1693Y95D03*
X293Y595D03*
X893Y95D03*
G54D12*
X3493Y1035D03*
G54D10*
X193Y1695D03*
X1893Y1495D03*
X793Y695D03*
X293Y1495D03*
X293Y695D03*
G54D12*
X1543Y945D03*
G54D10*
X2853Y1995D03*
G54D12*
X3323Y1135D03*
G54D10*
X293Y1095D03*
X1893Y1995D03*
G54D12*
X1333Y1075D03*
G54D10*
X2793Y1495D03*
X2453Y1995D03*
G54D12*
X3493Y1235D03*
G54D10*
X193Y795D03*
G54D12*
X1613Y1875D03*
G54D11*
X1293Y695D03*
X1193Y695D03*
X1093Y695D03*
X993Y695D03*
X893Y695D03*
X793Y695D03*
G54D10*
X793Y1495D03*
X2893Y695D03*
X1793Y95D03*
X1693Y1495D03*
X193Y1595D03*
G54D12*
X3253Y1325D03*
G54D10*
X693Y95D03*
X2553Y1995D03*
G54D12*
X513Y685D03*
X3493Y935D03*
G54D10*
X293Y1595D03*
X193Y695D03*
X1993Y1495D03*
X2393Y1495D03*
X793Y95D03*
X1093Y95D03*
G54D11*
X2093Y1495D03*
X1993Y1495D03*
X1893Y1495D03*
X1793Y1495D03*
X1693Y1495D03*
X1593Y1495D03*
G54D10*
X193Y1095D03*
X2593Y695D03*
X993Y1495D03*
G54D12*
X3113Y1195D03*
G54D10*
X2093Y1995D03*
X293Y1795D03*
X993Y695D03*
X1693Y1995D03*
G54D12*
X3173Y1265D03*
G54D11*
X2353Y1995D03*
X2453Y1995D03*
X2553Y1995D03*
X2653Y1995D03*
X2753Y1995D03*
X2853Y1995D03*
G54D10*
X2693Y695D03*
X2193Y1995D03*
X293Y995D03*
X193Y1895D03*
X393Y95D03*
X193Y595D03*
X2793Y695D03*
X3763Y1435D03*
G54D11*
X1093Y95D03*
X993Y95D03*
X893Y95D03*
X793Y95D03*
X693Y95D03*
X593Y95D03*
X493Y95D03*
X393Y95D03*
X1093Y95D03*
X993Y95D03*
X893Y95D03*
X793Y95D03*
X693Y95D03*
X593Y95D03*
X493Y95D03*
X393Y95D03*
G54D10*
X2393Y695D03*
G54D12*
X1543Y1075D03*
G54D10*
X293Y1695D03*
X1393Y95D03*
X293Y795D03*
G54D11*
X1693Y1995D03*
X1793Y1995D03*
X1893Y1995D03*
X1993Y1995D03*
X2093Y1995D03*
X2193Y1995D03*
G54D10*
X593Y95D03*
X1793Y1995D03*
G54D12*
X3493Y1135D03*
X3493Y835D03*
G54D10*
X293Y1295D03*
X1193Y1495D03*
X2893Y1495D03*
X293Y1195D03*
X1793Y695D03*
G54D12*
X1543Y1135D03*
G54D11*
X1993Y95D03*
X1893Y95D03*
X1793Y95D03*
X1693Y95D03*
X1593Y95D03*
X1493Y95D03*
X1393Y95D03*
X1293Y95D03*
X1993Y95D03*
X1893Y95D03*
X1793Y95D03*
X1693Y95D03*
X1593Y95D03*
X1493Y95D03*
X1393Y95D03*
X1293Y95D03*
G54D10*
X293Y395D03*
X1093Y1495D03*
X193Y895D03*
X1693Y695D03*
G54D12*
X1333Y1005D03*
G54D10*
X1593Y95D03*
X1893Y95D03*
G54D12*
X3253Y1075D03*
G54D10*
X2593Y1495D03*
G54D12*
X3493Y535D03*
X1613Y1715D03*
G54D10*
X1793Y1495D03*
X2093Y1495D03*
X193Y1195D03*
X1293Y1495D03*
X293Y495D03*
X1993Y95D03*
G54D12*
X3183Y1005D03*
G54D10*
X1593Y695D03*
X2693Y1495D03*
X293Y895D03*
X2653Y1995D03*
G54D13*
X293Y1895D03*
X293Y1795D03*
X293Y1695D03*
X293Y1595D03*
X293Y1495D03*
X293Y1395D03*
X293Y1295D03*
X293Y1195D03*
X293Y1095D03*
X293Y995D03*
X293Y895D03*
X293Y795D03*
X293Y1895D03*
X293Y1795D03*
X293Y1695D03*
X293Y1595D03*
X293Y1495D03*
X293Y1395D03*
X293Y1295D03*
X293Y1195D03*
X293Y1095D03*
X293Y995D03*
X293Y895D03*
X293Y795D03*
X193Y795D03*
X193Y895D03*
X193Y995D03*
X193Y1095D03*
X193Y1195D03*
X193Y1295D03*
X193Y1395D03*
X193Y1495D03*
X193Y1595D03*
X193Y1695D03*
X193Y1795D03*
X193Y1895D03*
X293Y1895D03*
X293Y1795D03*
X293Y1695D03*
X293Y1595D03*
X293Y1495D03*
X293Y1395D03*
X293Y1295D03*
X293Y1195D03*
X293Y1095D03*
X293Y995D03*
X293Y895D03*
X293Y795D03*
X293Y1895D03*
X293Y1795D03*
X293Y1695D03*
X293Y1595D03*
X293Y1495D03*
X293Y1395D03*
X293Y1295D03*
X293Y1195D03*
X293Y1095D03*
X293Y995D03*
X293Y895D03*
X293Y795D03*
X193Y795D03*
X193Y895D03*
X193Y995D03*
X193Y1095D03*
X193Y1195D03*
X193Y1295D03*
X193Y1395D03*
X193Y1495D03*
X193Y1595D03*
X193Y1695D03*
X193Y1795D03*
X193Y1895D03*
G54D12*
X1333Y1135D03*
G54D10*
X493Y95D03*
X193Y1795D03*
X1093Y695D03*
X193Y1395D03*
X293Y1895D03*
X2753Y1995D03*
G54D12*
X3493Y635D03*
G54D10*
X893Y695D03*
G54D12*
X3493Y735D03*
G54D10*
X1293Y695D03*
X1993Y695D03*
X893Y1495D03*
G54D12*
X3113Y945D03*
G54D10*
X193Y995D03*
X2353Y1995D03*
X2093Y695D03*
G54D14*
X603Y775D02*
X752Y775D01*
D02*
X2793Y625D02*
X2962Y625D01*
D02*
X722Y1795D02*
X318Y1795D01*
D02*
X603Y395D02*
X603Y775D01*
D02*
X1463Y1795D02*
X1463Y2045D01*
D02*
X3592Y1335D02*
X3592Y305D01*
D02*
X622Y1285D02*
X623Y1295D01*
D02*
X2962Y1615D02*
X2352Y1615D01*
D02*
X683Y1345D02*
X682Y1595D01*
D02*
X2593Y1520D02*
X2593Y1595D01*
D02*
X3113Y535D02*
X3479Y535D01*
D02*
X1293Y1470D02*
X1293Y1345D01*
D02*
X993Y1520D02*
X993Y1625D01*
D02*
X3553Y1535D02*
X3553Y345D01*
D02*
X1893Y1305D02*
X642Y1305D01*
D02*
X752Y945D02*
X1529Y945D01*
D02*
X1092Y1386D02*
X722Y1386D01*
D02*
X2982Y1635D02*
X2452Y1635D01*
D02*
X3253Y1062D02*
X3252Y735D01*
D02*
X93Y594D02*
X168Y595D01*
D02*
X3382Y936D02*
X3479Y935D01*
D02*
X3787Y635D02*
X3832Y635D01*
D02*
X1892Y565D02*
X3023Y565D01*
D02*
X3423Y1135D02*
X3479Y1135D01*
D02*
X513Y495D02*
X513Y672D01*
D02*
X3787Y735D02*
X3853Y734D01*
D02*
X1893Y670D02*
X1892Y565D01*
D02*
X1482Y1875D02*
X1482Y2065D01*
D02*
X393Y120D02*
X393Y365D01*
D02*
X702Y795D02*
X702Y1185D01*
D02*
X1599Y1795D02*
X1463Y1795D01*
D02*
X1292Y285D02*
X1293Y120D01*
D02*
X1993Y670D02*
X1993Y585D01*
D02*
X3763Y510D02*
X3763Y285D01*
D02*
X1893Y1605D02*
X1893Y1970D01*
D02*
X3186Y1265D02*
X3403Y1265D01*
D02*
X793Y1895D02*
X318Y1895D01*
D02*
X3183Y635D02*
X3479Y635D01*
D02*
X3252Y735D02*
X3479Y735D01*
D02*
X2982Y605D02*
X2982Y1635D01*
D02*
X3763Y285D02*
X1292Y285D01*
D02*
X623Y1195D02*
X318Y1195D01*
D02*
X663Y1225D02*
X663Y995D01*
D02*
X662Y1495D02*
X318Y1495D01*
D02*
X702Y1185D02*
X2893Y1185D01*
D02*
X623Y1295D02*
X318Y1295D01*
D02*
X623Y1265D02*
X623Y1195D01*
D02*
X1993Y585D02*
X3003Y585D01*
D02*
X3403Y1035D02*
X3479Y1035D01*
D02*
X73Y495D02*
X168Y495D01*
D02*
X2352Y1615D02*
X2353Y1970D01*
D02*
X3638Y1335D02*
X3592Y1335D01*
D02*
X3532Y1635D02*
X3638Y1635D01*
D02*
X2793Y1470D02*
X2792Y1205D01*
D02*
X1463Y2045D02*
X93Y2045D01*
D02*
X53Y2084D02*
X3482Y2085D01*
D02*
X2693Y670D02*
X2692Y605D01*
D02*
X1793Y1625D02*
X1793Y1970D01*
D02*
X752Y775D02*
X752Y945D01*
D02*
X2593Y1595D02*
X2193Y1595D01*
D02*
X1993Y1470D02*
X1992Y1285D01*
D02*
X702Y1365D02*
X703Y1695D01*
D02*
X3832Y264D02*
X1393Y265D01*
D02*
X3062Y525D02*
X3062Y1715D01*
D02*
X3323Y1122D02*
X3323Y835D01*
D02*
X168Y395D02*
X53Y395D01*
D02*
X1346Y1135D02*
X1529Y1135D01*
D02*
X2393Y1470D02*
X2393Y1245D01*
D02*
X1193Y1470D02*
X1193Y1365D01*
D02*
X1993Y1575D02*
X1993Y1970D01*
D02*
X1599Y1875D02*
X1482Y1875D01*
D02*
X2552Y1655D02*
X2553Y1970D01*
D02*
X3042Y1695D02*
X2752Y1695D01*
D02*
X2093Y1470D02*
X2093Y1265D01*
D02*
X2652Y1675D02*
X2653Y1970D01*
D02*
X663Y995D02*
X318Y995D01*
D02*
X53Y395D02*
X53Y2084D01*
D02*
X3592Y305D02*
X693Y305D01*
D02*
X1346Y1075D02*
X1529Y1075D01*
D02*
X2093Y1265D02*
X623Y1265D01*
D02*
X393Y365D02*
X3532Y365D01*
D02*
X1443Y1715D02*
X1443Y2025D01*
D02*
X2093Y1575D02*
X2093Y1970D01*
D02*
X1393Y265D02*
X1393Y120D01*
D02*
X1193Y1365D02*
X702Y1365D01*
D02*
X1193Y670D02*
X1192Y545D01*
D02*
X1593Y1470D02*
X1593Y1325D01*
D02*
X2752Y1695D02*
X2753Y1970D01*
D02*
X2792Y1205D02*
X683Y1205D01*
D02*
X993Y1625D02*
X1793Y1625D01*
D02*
X317Y495D02*
X513Y495D01*
D02*
X3553Y345D02*
X492Y345D01*
D02*
X1893Y1470D02*
X1893Y1305D01*
D02*
X593Y120D02*
X592Y325D01*
D02*
X3266Y1325D02*
X3423Y1325D01*
D02*
X2962Y625D02*
X2962Y1615D01*
D02*
X793Y1520D02*
X793Y1895D01*
D02*
X703Y1695D02*
X318Y1695D01*
D02*
X3638Y1535D02*
X3553Y1535D01*
D02*
X1443Y2025D02*
X113Y2025D01*
D02*
X113Y2025D02*
X113Y696D01*
D02*
X683Y1205D02*
X683Y895D01*
D02*
X3382Y1194D02*
X3382Y936D01*
D02*
X1693Y1605D02*
X1893Y1605D01*
D02*
X893Y1520D02*
X893Y1645D01*
D02*
X3572Y1436D02*
X3638Y1435D01*
D02*
X893Y1645D02*
X1693Y1645D01*
D02*
X1493Y245D02*
X1493Y120D01*
D02*
X3572Y324D02*
X3572Y1436D01*
D02*
X2693Y1225D02*
X663Y1225D01*
D02*
X3003Y1655D02*
X2552Y1655D01*
D02*
X3323Y835D02*
X3479Y835D01*
D02*
X1793Y1520D02*
X1793Y1575D01*
D02*
X642Y1095D02*
X318Y1095D01*
D02*
X318Y795D02*
X702Y795D01*
D02*
X3832Y635D02*
X3832Y264D01*
D02*
X3003Y585D02*
X3003Y1655D01*
D02*
X1593Y1325D02*
X663Y1325D01*
D02*
X3423Y1325D02*
X3423Y1135D01*
D02*
X3023Y1675D02*
X2652Y1675D01*
D02*
X2493Y1520D02*
X2493Y1575D01*
D02*
X93Y2045D02*
X93Y594D01*
D02*
X3062Y1715D02*
X2853Y1715D01*
D02*
X3183Y992D02*
X3183Y635D01*
D02*
X722Y1386D02*
X722Y1795D01*
D02*
X1693Y1520D02*
X1693Y1605D01*
D02*
X3042Y545D02*
X3042Y1695D01*
D02*
X1092Y525D02*
X3062Y525D01*
D02*
X1599Y1715D02*
X1443Y1715D01*
D02*
X1793Y1575D02*
X1993Y1575D01*
D02*
X317Y395D02*
X603Y395D01*
D02*
X693Y305D02*
X693Y120D01*
D02*
X2452Y1635D02*
X2453Y1970D01*
D02*
X113Y696D02*
X168Y695D01*
D02*
X1992Y1285D02*
X622Y1285D01*
D02*
X3126Y1195D02*
X3382Y1194D01*
D02*
X2893Y1185D02*
X2893Y1470D01*
D02*
X1346Y1005D02*
X1529Y1005D01*
D02*
X3853Y734D02*
X3853Y245D01*
D02*
X2692Y605D02*
X2982Y605D01*
D02*
X663Y1325D02*
X662Y1495D01*
D02*
X683Y895D02*
X318Y895D01*
D02*
X3403Y1265D02*
X3403Y1035D01*
D02*
X1192Y545D02*
X3042Y545D01*
D02*
X2493Y1575D02*
X2093Y1575D01*
D02*
X1482Y2065D02*
X73Y2065D01*
D02*
X3023Y565D02*
X3023Y1675D01*
D02*
X642Y1245D02*
X642Y1095D01*
D02*
X1693Y1645D02*
X1693Y1970D01*
D02*
X642Y1395D02*
X318Y1395D01*
D02*
X3532Y365D02*
X3532Y1635D01*
D02*
X3113Y932D02*
X3113Y535D01*
D02*
X682Y1595D02*
X318Y1595D01*
D02*
X642Y1305D02*
X642Y1395D01*
D02*
X3482Y2085D02*
X3492Y1248D01*
D02*
X1093Y1470D02*
X1092Y1386D01*
D02*
X2853Y1715D02*
X2853Y1970D01*
D02*
X2393Y1245D02*
X642Y1245D01*
D02*
X2193Y1595D02*
X2193Y1970D01*
D02*
X1293Y1345D02*
X683Y1345D01*
D02*
X2693Y1470D02*
X2693Y1225D01*
D02*
X3853Y245D02*
X1493Y245D01*
D02*
X1093Y670D02*
X1092Y525D01*
D02*
X73Y2065D02*
X73Y495D01*
D02*
X492Y345D02*
X493Y120D01*
D02*
X2793Y670D02*
X2793Y625D01*
D02*
X592Y325D02*
X3572Y324D01*
G04 End of Copper0*
M02*