; NON-PLATED HOLES START AT T1
; THROUGH (PLATED) HOLES START AT T100
M48
INCH
T100C0.039370
T101C0.038000
T102C0.015748
%
T100
X002925Y007950
X019925Y006950
X024925Y014950
X020925Y006950
X025925Y006950
X011925Y006950
X028925Y014950
X006925Y000950
X036625Y005350
X010925Y006950
X001925Y007950
X036625Y009350
X028525Y019950
X002925Y003950
X007925Y014950
X024925Y006950
X009925Y000950
X002925Y013950
X001925Y017950
X008925Y000950
X002925Y011950
X036625Y011350
X018925Y019950
X012925Y000950
X027925Y014950
X036625Y008350
X001925Y003950
X004925Y000950
X019925Y000950
X037625Y011350
X001925Y018950
X002925Y018950
X037625Y010350
X037625Y008350
X015925Y006950
X018925Y014950
X001925Y006950
X036625Y014350
X002925Y005950
X023925Y006950
X003925Y000950
X008925Y014950
X009925Y014950
X007925Y006950
X009925Y006950
X005925Y000950
X020925Y014950
X037625Y014350
X024525Y019950
X012925Y014950
X013925Y000950
X036625Y006350
X027925Y006950
X010925Y000950
X001925Y012950
X008925Y006950
X002925Y004950
X010925Y014950
X015925Y000950
X018925Y000950
X025525Y019950
X001925Y015950
X016925Y000950
X011925Y014950
X007925Y000950
X020925Y019950
X012925Y006950
X001925Y010950
X002925Y010950
X002925Y006950
X015925Y014950
X019925Y019950
X037625Y013350
X002925Y017950
X017925Y019950
X002925Y008950
X001925Y004950
X023525Y019950
X016925Y014950
X002925Y012950
X037625Y016350
X001925Y014950
X036625Y010350
X037625Y005350
X016925Y006950
X036625Y013350
X002925Y014950
X017925Y006950
X014925Y000950
X001925Y013950
X026925Y014950
X016925Y019950
X001925Y011950
X037625Y012350
X018925Y006950
X025925Y014950
X036625Y012350
X001925Y009950
X021925Y019950
X002925Y009950
X002925Y015950
X017925Y000950
X036625Y015350
X036625Y007350
X002925Y016950
X023925Y014950
X037625Y015350
X017925Y014950
X037625Y006350
X037625Y009350
X001925Y008950
X026525Y019950
X036625Y016350
X019925Y014950
X001925Y005950
X001925Y016950
X027525Y019950
X026925Y006950
X037625Y007350
X028925Y006950
T101
X019925Y006950
X024925Y014950
X020925Y006950
X025925Y006950
X011925Y006950
X028925Y014950
X006925Y000950
X036625Y005350
X010925Y006950
X028533Y019950
X036625Y009350
X002925Y003950
X007925Y014950
X024925Y006950
X009925Y000950
X008925Y000950
X036625Y011350
X027533Y019950
X012925Y000950
X018925Y019950
X027925Y014950
X036625Y008350
X001925Y003950
X004925Y000950
X019925Y000950
X037625Y011350
X037625Y010350
X037625Y008350
X018925Y014950
X015925Y006950
X001925Y006950
X036625Y014350
X002925Y005950
X023925Y006950
X003925Y000950
X008925Y014950
X009925Y014950
X007925Y006950
X009925Y006950
X005925Y000950
X020925Y014950
X037625Y014350
X012925Y014950
X013925Y000950
X036625Y006350
X010925Y000950
X027925Y006950
X008925Y006950
X002925Y004950
X010925Y014950
X015925Y000950
X018925Y000950
X016925Y000950
X023533Y019950
X011925Y014950
X007925Y000950
X020925Y019950
X012925Y006950
X002925Y006950
X015925Y014950
X019925Y019950
X037625Y013350
X017925Y019950
X001925Y004950
X016925Y014950
X037625Y016350
X036625Y010350
X024533Y019950
X037625Y005350
X016925Y006950
X036625Y013350
X017925Y006950
X014925Y000950
X026925Y014950
X016925Y019950
X037625Y012350
X018925Y006950
X025925Y014950
X036625Y012350
X021925Y019950
X017925Y000950
X036625Y015350
X026533Y019950
X036625Y007350
X023925Y014950
X037625Y015350
X017925Y014950
X037625Y006350
X037625Y009350
X036625Y016350
X019925Y014950
X001925Y005950
X026925Y006950
X037625Y007350
X025533Y019950
X028925Y006950
T102
X034925Y011350
X033225Y011350
X032525Y010750
X015425Y010050
X034925Y010350
X013325Y010750
X005125Y006850
X034925Y007350
X016125Y018750
X013325Y011350
X015425Y010750
X016125Y017950
X034925Y005350
X016125Y017150
X031725Y012650
X032525Y013250
X031125Y009450
X034925Y009350
X013325Y010050
X031125Y011950
X015425Y009450
X034925Y006350
X015425Y011350
X034925Y008350
X034925Y012350
X031825Y010050
T00
M30
